<svg width="10" height="14" viewBox="0 0 10 14" fill="none" xmlns="http://www.w3.org/2000/svg">
<path fill-rule="evenodd" clip-rule="evenodd" d="M9.16782 2.17644L2.96092 6.99998L9.16782 11.8235C9.24933 11.8869 9.31934 11.9683 9.37385 12.0632C9.42836 12.1581 9.4663 12.2645 9.48551 12.3765C9.50473 12.4885 9.50483 12.6038 9.48582 12.7158C9.46681 12.8278 9.42905 12.9344 9.37471 13.0294C9.26497 13.2213 9.09433 13.3545 8.90032 13.3997C8.80426 13.4221 8.70536 13.4223 8.60926 13.4001C8.51316 13.3779 8.42174 13.3339 8.34023 13.2706L1.3041 7.80262C1.19075 7.71452 1.09782 7.59516 1.03354 7.45515C0.969267 7.31513 0.935637 7.15878 0.935637 6.99998C0.935637 6.84118 0.969267 6.68483 1.03354 6.54482C1.09782 6.4048 1.19075 6.28545 1.3041 6.19735L8.34023 0.729383C8.42174 0.666039 8.51316 0.622032 8.60926 0.599871C8.70536 0.577709 8.80426 0.577828 8.90032 0.600224C8.99638 0.62262 9.08772 0.666851 9.16911 0.730393C9.25051 0.793936 9.32037 0.875545 9.37471 0.97056C9.42905 1.06558 9.46681 1.17214 9.48582 1.28416C9.50483 1.39618 9.50473 1.51148 9.48551 1.62345C9.4663 1.73543 9.42836 1.8419 9.37385 1.93678C9.31934 2.03166 9.24933 2.1131 9.16782 2.17644Z" fill="currentColor"/>
</svg>
