<svg width="20" height="20" viewBox="0 0 20 20" fill="currentColor" xmlns="http://www.w3.org/2000/svg">
<path d="M17.9685 0.0322418H1.83947C1.4117 0.0322418 1.00145 0.202172 0.698971 0.50465C0.396493 0.807128 0.226563 1.21738 0.226562 1.64515V17.7742C0.226563 18.2019 0.396493 18.6122 0.698971 18.9147C1.00145 19.2171 1.4117 19.3871 1.83947 19.3871H17.9685C18.3963 19.3871 18.8065 19.2171 19.109 18.9147C19.4115 18.6122 19.5814 18.2019 19.5814 17.7742V1.64515C19.5814 1.21738 19.4115 0.807128 19.109 0.50465C18.8065 0.202172 18.3963 0.0322418 17.9685 0.0322418ZM8.29108 14.1451L4.25882 10.1476L5.54108 8.90321L8.29108 11.6016L14.2661 5.6774L15.5491 6.94918L8.29108 14.1451Z" />
</svg>
