<svg width="23" height="13" viewBox="0 0 23 13" fill="none" xmlns="http://www.w3.org/2000/svg">
<path d="M7.84375 12.0703C7.84375 11.8279 7.94005 11.5954 8.11147 11.424C8.28289 11.2526 8.51539 11.1562 8.75781 11.1562H14.2422C14.4846 11.1562 14.7171 11.2526 14.8885 11.424C15.0599 11.5954 15.1562 11.8279 15.1562 12.0703C15.1562 12.3127 15.0599 12.5452 14.8885 12.7167C14.7171 12.8881 14.4846 12.9844 14.2422 12.9844H8.75781C8.51539 12.9844 8.28289 12.8881 8.11147 12.7167C7.94005 12.5452 7.84375 12.3127 7.84375 12.0703ZM4.1875 6.58594C4.1875 6.34351 4.2838 6.11102 4.45522 5.9396C4.62664 5.76818 4.85914 5.67188 5.10156 5.67188H17.8984C18.1409 5.67188 18.3734 5.76818 18.5448 5.9396C18.7162 6.11102 18.8125 6.34351 18.8125 6.58594C18.8125 6.82836 18.7162 7.06086 18.5448 7.23228C18.3734 7.4037 18.1409 7.5 17.8984 7.5H5.10156C4.85914 7.5 4.62664 7.4037 4.45522 7.23228C4.2838 7.06086 4.1875 6.82836 4.1875 6.58594ZM0.53125 1.10156C0.53125 0.859138 0.627553 0.626643 0.798973 0.455223C0.970393 0.283803 1.20289 0.1875 1.44531 0.1875H21.5547C21.7971 0.1875 22.0296 0.283803 22.201 0.455223C22.3724 0.626643 22.4688 0.859138 22.4688 1.10156C22.4688 1.34399 22.3724 1.57648 22.201 1.7479C22.0296 1.91932 21.7971 2.01562 21.5547 2.01562H1.44531C1.20289 2.01562 0.970393 1.91932 0.798973 1.7479C0.627553 1.57648 0.53125 1.34399 0.53125 1.10156Z" fill="currentColor"/>
</svg>
